<svg width="457" height="258" viewBox="0 0 457 258" fill="none" xmlns="http://www.w3.org/2000/svg">
<path fill-rule="evenodd" clip-rule="evenodd" d="M315 152.5L284.5 205H223.5L193 152.5L223.5 100L284.5 100L315 152.5V152.5Z" stroke="#B3D78D" stroke-width="2"/>
<path fill-rule="evenodd" clip-rule="evenodd" d="M315 44.5L284.5 97H223.5L193 44.5L223.5 -8L284.5 -8L315 44.5V44.5Z" stroke="#B3D78D" stroke-width="2"/>
<path fill-rule="evenodd" clip-rule="evenodd" d="M219 98.5L188.5 151H127.5L97 98.5L127.5 46L188.5 46L219 98.5V98.5Z" stroke="#B3D78D" stroke-width="2"/>
<path fill-rule="evenodd" clip-rule="evenodd" d="M410 98.5L379.5 151H318.5L288 98.5L318.5 46L379.5 46L410 98.5V98.5Z" stroke="#B3D78D" stroke-width="2"/>
<path fill-rule="evenodd" clip-rule="evenodd" d="M219 -12.5L188.5 40H127.5L97 -12.5L127.5 -65L188.5 -65L219 -12.5V-12.5Z" stroke="#B3D78D" stroke-width="2"/>
<path fill-rule="evenodd" clip-rule="evenodd" d="M317.79 151H379.366L410.011 203.749L409.578 204L410.011 204.251L379.366 257H317.79L287 204L317.79 151ZM409 204L378.79 152H318.366L288.157 204L318.366 256H378.79L409 204Z" stroke="#B3D78D"/>
<path fill-rule="evenodd" clip-rule="evenodd" d="M506 44.5L475.5 97H414.5L384 44.5L414.5 -8L475.5 -8L506 44.5V44.5Z" stroke="#B3D78D" stroke-width="2"/>
<path fill-rule="evenodd" clip-rule="evenodd" d="M505 153.5L474.5 206H413.5L383 153.5L413.5 101L474.5 101L505 153.5V153.5Z" stroke="#B3D78D" stroke-width="2"/>
<path fill-rule="evenodd" clip-rule="evenodd" d="M31.7905 -9H93.366L124.011 43.7488L123.578 44L124.011 44.2512L93.366 97H31.7905L1 44L31.7905 -9ZM123 44L92.7905 -8H32.366L2.15651 44L32.366 96H92.7905L123 44Z" stroke="#B3D78D"/>
</svg>
